<?xml version="1.0" encoding="UTF-8"?><svg xmlns="http://www.w3.org/2000/svg" width="8.2cm" height="10.56cm" xmlns:xlink="http://www.w3.org/1999/xlink" viewBox="0 0 232.46 299.37"><defs><style>.cls-1{opacity:.25;}.cls-1,.cls-2,.cls-3,.cls-4,.cls-5,.cls-6,.cls-7,.cls-8,.cls-9{fill:none;}.cls-3{clip-path:url(#clippath-3);}.cls-4{clip-path:url(#clippath-2);}.cls-5{clip-path:url(#clippath-1);}.cls-6{isolation:isolate;}.cls-10{fill:#6697aa;}.cls-11{fill:#fcf5f0;}.cls-12{fill:#c2d8df;}.cls-13{fill:silver;}.cls-14{fill:#dfebed;}.cls-15{fill:#d86238;}.cls-7{mix-blend-mode:multiply;opacity:.3;}.cls-8{clip-path:url(#clippath);}.cls-9{opacity:.2;}</style><clipPath id="clippath"><rect class="cls-2" x="-37.58" y="75.4" width="146.47" height="190.48" rx="5.48" ry="5.48" transform="translate(77.59 1.43) rotate(25.72)"/></clipPath><clipPath id="clippath-1"><rect class="cls-2" x="110.53" y="25.78" width="130.98" height="193.5" rx="5.48" ry="5.48" transform="translate(12.6 -16.36) rotate(5.52)"/></clipPath><clipPath id="clippath-2"><circle class="cls-2" cx="193.11" cy="236.31" r="20.17"/></clipPath><clipPath id="clippath-3"><rect class="cls-2" x="54.79" y="40.87" width="122.89" height="171.1" rx="5.48" ry="5.48"/></clipPath></defs><g class="cls-6"><g id="Layer_23"><g id="Layer_24"><rect class="cls-12" x="-37.58" y="75.37" width="146.47" height="190.48" rx="5.48" ry="5.48" transform="translate(77.58 1.43) rotate(25.72)"/></g><g id="Layer_21"><rect class="cls-2" x="-94.53" y="119.08" width="226.81" height="164.38" transform="translate(-169.4 127.65) rotate(-63.29)"/><g class="cls-1"><g class="cls-8"><g id="TkIZGr"><image id="TkIZGr-2" width="650" height="722" transform="translate(10.05 34.55) rotate(26.71) scale(.25 .31)" xlink:href="stof_i_lag1.png"/></g></g></g></g></g><g id="Layer_22"><rect class="cls-10" x="110.54" y="25.78" width="130.98" height="193.5" rx="5.48" ry="5.48" transform="translate(12.6 -16.36) rotate(5.52)"/><g class="cls-9"><g class="cls-5"><image id="OXwuGJ" width="600" height="400" transform="translate(112.94 -3.28) rotate(5.52) scale(.25 .55)" xlink:href="stof_i_lag2.png"/></g></g></g><g id="Layer_25"><circle class="cls-12" cx="172.51" cy="243.1" r="22.17"/><rect class="cls-14" x="54.79" y="40.87" width="122.89" height="171.1" rx="5.48" ry="5.48"/><g class="cls-7"><g class="cls-4"><g id="yQFR04.tif"><image id="Layer_0" width="540" height="532" transform="translate(165.15 225.57) rotate(-23.93) scale(.08)" xlink:href="stof_i_lag3.png"/></g></g></g><circle class="cls-14" cx="172.51" cy="243.1" r="17.23"/><rect class="cls-13" x="167.59" y="233.17" width=".61" height="15.28" rx=".31" ry=".31" transform="translate(-111.85 329.81) rotate(-72.76)"/><circle class="cls-15" cx="159.78" cy="238.29" r="2.12"/><path class="cls-11" d="m159.67,236.53c-.77.03-1.36.62-1.31.71.05.1.8-.46,1.4-.15.33.17.42.49.76.5.15,0,.35-.04.41-.18.08-.18-.11-.4-.16-.47-.36-.44-1.03-.43-1.1-.42Z"/><circle class="cls-12" cx="190.94" cy="236.98" r="22.59"/><circle class="cls-10" cx="193.11" cy="236.31" r="20.17"/><rect class="cls-13" x="173.33" y="221.43" width=".61" height="15.28" rx=".31" ry=".31" transform="translate(-106.84 291.98) rotate(-65.48)"/><rect class="cls-13" x="187.74" y="212.4" width=".61" height="15.28" rx=".31" ry=".31" transform="translate(-30.62 30.4) rotate(-8.55)"/><rect class="cls-13" x="191.95" y="203.33" width=".61" height="15.28" rx=".31" ry=".31" transform="translate(10.48 -9.1) rotate(2.79)"/><rect class="cls-13" x="205.02" y="209.81" width=".61" height="15.28" rx=".31" ry=".31" transform="translate(213.61 -81.51) rotate(44.94)"/><rect class="cls-13" x="199.39" y="223.77" width=".61" height="15.28" rx=".31" ry=".31" transform="translate(221.82 -73.45) rotate(44.94)"/><rect class="cls-13" x="214.11" y="219.22" width=".61" height="15.28" rx=".31" ry=".31" transform="translate(334.83 -61.13) rotate(66.07)"/><rect class="cls-13" x="210.39" y="227.99" width=".61" height="15.28" rx=".31" ry=".31" transform="translate(456.3 36.64) rotate(92.79)"/><rect class="cls-13" x="212.57" y="241.22" width=".61" height="18.47" rx=".31" ry=".31" transform="translate(533.05 176.07) rotate(117.28)"/><rect class="cls-13" x="200.3" y="238.12" width=".61" height="15.28" rx=".31" ry=".31" transform="translate(517.64 257.29) rotate(131.31)"/><rect class="cls-13" x="189.82" y="248.8" width=".61" height="15.28" rx=".31" ry=".31" transform="translate(340.62 537.98) rotate(-171.57)"/><circle class="cls-15" cx="165.69" cy="225.56" r="2.12"/><circle class="cls-15" cx="188.89" cy="264.1" r="2.12"/><circle class="cls-15" cx="187" cy="212.14" r="2.12"/><circle class="cls-15" cx="205.77" cy="250.31" r="2.12"/><circle class="cls-15" cx="192.58" cy="201.32" r="2.12"/><circle class="cls-15" cx="203.71" cy="227.32" r="2.12"/><circle class="cls-15" cx="222.15" cy="255.35" r="2.12"/><circle class="cls-15" cx="218.92" cy="235.93" r="2.12"/><circle class="cls-15" cx="223.1" cy="223.34" r="2.12"/><circle class="cls-15" cx="210.34" cy="212.47" r="2.12"/><path class="cls-11" d="m185.6,211.2c-.35.69-.13,1.49-.02,1.5.11,0,0-.92.56-1.29.31-.2.63-.12.81-.41.08-.12.13-.32.04-.45-.11-.16-.41-.1-.48-.09-.56.1-.88.68-.91.75Z"/><path class="cls-11" d="m209.65,210.93c-.68.37-.94,1.16-.86,1.22.09.07.51-.77,1.19-.75.37,0,.59.26.91.11.13-.06.29-.19.29-.34,0-.19-.28-.31-.35-.35-.52-.24-1.11.07-1.17.11Z"/><path class="cls-11" d="m207.59,250.32c-.03-.77-.63-1.36-.72-1.31-.1.05.46.8.15,1.4-.17.33-.49.42-.5.76,0,.15.05.35.18.41.18.08.4-.11.47-.16.44-.37.42-1.03.42-1.1Z"/><path class="cls-11" d="m223.8,255.35c-.03-.77-.63-1.36-.72-1.31-.1.05.46.8.15,1.4-.17.33-.49.42-.5.76,0,.15.05.35.18.41.18.08.4-.11.47-.16.44-.37.42-1.03.42-1.1Z"/><g class="cls-1"><g class="cls-3"><g id="CJw47y"><image id="CJw47y-2" width="800" height="800" transform="translate(48.72 38.12) scale(.17 .23)" xlink:href="stof_i_lag4.png"/></g></g></g><rect class="cls-13" x="151.39" y="48.24" width=".82" height="20.44" rx=".26" ry=".26" transform="translate(-8.88 33.11) rotate(-12.1)"/><circle class="cls-15" cx="149.41" cy="47.33" r="2.83"/><path class="cls-11" d="m150.39,45.13c-.96-.38-2,.02-1.99.16,0,.15,1.23-.13,1.79.58.31.38.24.83.66,1.03.18.09.45.13.6,0,.19-.17.09-.55.06-.66-.21-.74-1.02-1.08-1.11-1.11Z"/><rect class="cls-13" x="160.8" y="55.36" width=".82" height="20.43" rx=".41" ry=".41" transform="translate(19.81 -35.89) rotate(13.53)"/><circle class="cls-15" cx="163.87" cy="54.51" r="2.83"/><rect class="cls-13" x="70.49" y="182.58" width=".94" height="23.31" rx=".47" ry=".47" transform="translate(-121.98 119.81) rotate(-48.84)"/><circle class="cls-15" cx="61.19" cy="185.7" r="3.23"/><path class="cls-11" d="m62.27,183.09c-1.1-.44-2.28.02-2.27.18,0,.17,1.4-.14,2.05.66.35.44.28.94.75,1.17.2.1.51.15.68,0,.22-.2.1-.63.07-.75-.23-.84-1.17-1.23-1.27-1.27Z"/></g></g></svg>