<?xml version="1.0" encoding="UTF-8"?><svg xmlns="http://www.w3.org/2000/svg" width="7.94cm" height="1.69cm" viewBox="0 0 225.18 47.86"><defs><style>.cls-1{fill:#82623b;}.cls-2{fill:#c8af8e;}.cls-3{fill:#83633b;}</style></defs><g id="Layer_18"><path class="cls-2" d="m209.58,15.66H11.82c-3.02,0-5.46,3.68-5.46,8.23s2.45,8.23,5.46,8.23h197.76c3.1,0,5.61-3.68,5.61-8.23s-2.51-8.23-5.61-8.23Z"/></g><g id="Layer_19"><ellipse class="cls-1" cx="11.91" cy="23.91" rx="4.68" ry="7.09"/><path class="cls-3" d="m34.19,15.66c.42.52,3.54,4.54,2.36,9.78-.89,3.94-3.66,6.11-4.44,6.67h-1.92c.58-.35,4.53-2.82,5.24-7.51.64-4.21-1.72-7.64-2.3-8.48-.14-.2-.25-.35-.33-.46.47,0,.93,0,1.4,0Z"/><path class="cls-3" d="m53.97,15.66c.42.52,3.54,4.54,2.36,9.78-.89,3.94-3.66,6.11-4.44,6.67h-1.92c.58-.35,4.53-2.82,5.24-7.51.64-4.21-1.72-7.64-2.3-8.48-.14-.2-.25-.35-.33-.46.47,0,.93,0,1.4,0Z"/><path class="cls-3" d="m73.53,15.66c.42.52,3.54,4.54,2.36,9.78-.89,3.94-3.66,6.11-4.44,6.67h-1.92c.58-.35,4.53-2.82,5.24-7.51.64-4.21-1.72-7.64-2.3-8.48-.14-.2-.25-.35-.33-.46.47,0,.93,0,1.4,0Z"/><path class="cls-3" d="m93.26,15.68c.42.52,3.54,4.54,2.36,9.78-.89,3.94-3.66,6.11-4.44,6.67h-1.92c.58-.35,4.53-2.82,5.24-7.51.64-4.21-1.72-7.64-2.3-8.48-.14-.2-.25-.35-.33-.46.47,0,.93,0,1.4,0Z"/><path class="cls-3" d="m112.75,15.66c.42.52,3.54,4.54,2.36,9.78-.89,3.94-3.66,6.11-4.44,6.67h-1.92c.58-.35,4.53-2.82,5.24-7.51.64-4.21-1.72-7.64-2.3-8.48-.14-.2-.25-.35-.33-.46.47,0,.93,0,1.4,0Z"/><path class="cls-3" d="m132.36,15.66c.42.52,3.54,4.54,2.36,9.78-.89,3.94-3.66,6.11-4.44,6.67h-1.92c.58-.35,4.53-2.82,5.24-7.51.64-4.21-1.72-7.64-2.3-8.48-.14-.2-.25-.35-.33-.46.47,0,.93,0,1.4,0Z"/><path class="cls-3" d="m151.97,15.66c.42.52,3.54,4.54,2.36,9.78-.89,3.94-3.66,6.11-4.44,6.67h-1.92c.58-.35,4.53-2.82,5.24-7.51.64-4.21-1.72-7.64-2.3-8.48-.14-.2-.25-.35-.33-.46.47,0,.93,0,1.4,0Z"/><path class="cls-3" d="m171.57,15.66c.42.52,3.54,4.54,2.36,9.78-.89,3.94-3.66,6.11-4.44,6.67h-1.92c.58-.35,4.53-2.82,5.24-7.51.64-4.21-1.72-7.64-2.3-8.48-.14-.2-.25-.35-.33-.46.47,0,.93,0,1.4,0Z"/><path class="cls-3" d="m191.18,15.66c.42.52,3.54,4.54,2.36,9.78-.89,3.94-3.66,6.11-4.44,6.67h-1.92c.58-.35,4.53-2.82,5.24-7.51.64-4.21-1.72-7.64-2.3-8.48-.14-.2-.25-.35-.33-.46.47,0,.93,0,1.4,0Z"/><path class="cls-3" d="m209.1,15.66c.42.52,3.54,4.54,2.36,9.78-.89,3.94-3.66,6.11-4.44,6.67h-1.92c.58-.35,4.53-2.82,5.24-7.51.64-4.21-1.72-7.64-2.3-8.48-.14-.2-.25-.35-.33-.46.47,0,.93,0,1.4,0Z"/></g></svg>