<?xml version="1.0" encoding="UTF-8"?><svg id="uuid-b083d4c4-decf-404f-8dfe-be839a3496a8" xmlns="http://www.w3.org/2000/svg" width="1114" height="1327" viewBox="0 0 1114 1327"><defs><style>.uuid-26213080-aa45-41b2-ae2c-b96d59fb4e55{fill:#c2d8df;}.uuid-26213080-aa45-41b2-ae2c-b96d59fb4e55,.uuid-0cb8a917-7002-48ea-811f-f9ab12d8edbe,.uuid-b2710cc3-cfe2-4662-9286-1fcfae855a3a{stroke-width:0px;}.uuid-0cb8a917-7002-48ea-811f-f9ab12d8edbe{fill:#6697aa;}.uuid-b2710cc3-cfe2-4662-9286-1fcfae855a3a{fill:#dfebed;}</style></defs><path class="uuid-26213080-aa45-41b2-ae2c-b96d59fb4e55" d="m620.54,957.38l-520.13,41.46c-3.55-3.03-7.11-6.06-10.66-9.09L43.88,410.92c2.71-8.97,5.41-17.94,8.12-26.92-3.67-3-7.33-6-11-9-1.65-20.5-3.29-41-4.94-61.5,1.98-4.17,3.96-8.34,5.94-12.5-2.97-8.21-5.95-16.42-8.92-24.63-5.11-63.36-10.23-126.73-15.34-190.09-.05-.66-.27-4.16,2.34-7.21,1.64-1.93,4.02-3.23,6.75-3.45l520.13-41.46c5.45-.43,10.23,3.63,10.66,9.09l72.02,903.48-9.09,10.66Z"/><path class="uuid-0cb8a917-7002-48ea-811f-f9ab12d8edbe" d="m43,301c74-3.67,148-7.33,222-11-77-4.67-154-9.33-231-14,3,8.33,6,16.67,9,25Z"/><path class="uuid-0cb8a917-7002-48ea-811f-f9ab12d8edbe" d="m54,384c98.72-4.47,148.05-7.47,148-9-.05-1.59-53.39-1.59-160,0l12,9Z"/><rect class="uuid-0cb8a917-7002-48ea-811f-f9ab12d8edbe" x="535.06" y="301.81" width="535.21" height="852.8" rx="9.91" ry="9.91" transform="translate(84.37 -83.34) rotate(6.27)"/><path class="uuid-b2710cc3-cfe2-4662-9286-1fcfae855a3a" d="m950.09,1326.99c-190.7-9.19-381.4-18.39-572.09-27.58-110.8,16.33-193.39,27.94-197.09,27.58-4.94-.48-7-3.33-7-3.33,0,0,0,0,0,0-1.79-2.06-2.9-4.91-2.9-8.05V20.38c0-6.29,4.43-11.38,9.91-11.38h769.19c3.3,3.79,6.6,7.59,9.91,11.38,1.67,429.02,3.33,858.05,5,1287.08-4.97,6.51-9.94,13.02-14.91,19.53Z"/></svg>