<?xml version="1.0" encoding="UTF-8"?><svg id="uuid-996ecb86-4d29-4841-a550-b28ba4746f16" xmlns="http://www.w3.org/2000/svg" width="800" height="1600" xmlns:xlink="http://www.w3.org/1999/xlink" viewBox="0 0 800 1600"><defs><style>.uuid-78f8f7b3-dd98-4f87-94e2-c120b00bf7f8{fill:#999;}.uuid-78f8f7b3-dd98-4f87-94e2-c120b00bf7f8,.uuid-8589a3d0-7a74-4a52-8875-f87adbbc646e,.uuid-70cde763-5a5b-4651-bc17-1c8066573c86,.uuid-aee70fb1-2d4c-4260-b80e-e45436acf470,.uuid-09cf2035-60ff-4261-adb6-fd353df9b997,.uuid-d491c09c-628c-4fef-b0b7-a6d4e4a41543,.uuid-2f989ad4-8e30-4a32-8f0f-bd4bde4517ae,.uuid-a28b4d14-575b-4b77-9964-488cec0d4760,.uuid-177bdd76-6bfc-4c7d-9c4a-758f1d7d158d,.uuid-bd289476-f46c-43cd-aa54-a21c218354fe,.uuid-65688ecb-7504-4f0f-8046-481a220ce6b3,.uuid-050274df-5ffb-4d21-aac6-7ce9e4a6f489,.uuid-33993fef-e9c3-44e0-915d-2c720eb6f23f,.uuid-214381f3-6975-43c0-b3d0-eae2ebd9ca2f,.uuid-03ef46c9-218c-412d-abde-289957a2033b,.uuid-5bdd90a2-c211-460f-adbe-53630510e7df{stroke-width:0px;}.uuid-8589a3d0-7a74-4a52-8875-f87adbbc646e{fill:#db623c;}.uuid-70cde763-5a5b-4651-bc17-1c8066573c86{fill:#2f3e49;}.uuid-aee70fb1-2d4c-4260-b80e-e45436acf470{fill:#974e5b;}.uuid-09cf2035-60ff-4261-adb6-fd353df9b997{fill:#f0eeea;}.uuid-d491c09c-628c-4fef-b0b7-a6d4e4a41543{fill:#487b8f;}.uuid-2f989ad4-8e30-4a32-8f0f-bd4bde4517ae{fill:#3f6679;}.uuid-a28b4d14-575b-4b77-9964-488cec0d4760{fill:#ddd8ce;}.uuid-177bdd76-6bfc-4c7d-9c4a-758f1d7d158d{fill:#cd4c30;}.uuid-bd289476-f46c-43cd-aa54-a21c218354fe{fill:url(#uuid-0acfd8b4-e466-478b-8c51-7fed380b391c);}.uuid-65688ecb-7504-4f0f-8046-481a220ce6b3{fill:#aa3a29;}.uuid-050274df-5ffb-4d21-aac6-7ce9e4a6f489{fill:#883228;}.uuid-33993fef-e9c3-44e0-915d-2c720eb6f23f{fill:silver;}.uuid-214381f3-6975-43c0-b3d0-eae2ebd9ca2f{fill:#eccec4;}.uuid-03ef46c9-218c-412d-abde-289957a2033b{fill:#e2815a;}.uuid-5bdd90a2-c211-460f-adbe-53630510e7df{fill:#314e5b;}.uuid-02f046b6-b938-45b0-a879-ef9a7254da31{fill:none;stroke:#cd4c30;stroke-linecap:round;stroke-linejoin:round;stroke-width:.77px;}</style><linearGradient id="uuid-0acfd8b4-e466-478b-8c51-7fed380b391c" x1="275.46" y1="201.7" x2="275.84" y2="175.72" gradientUnits="userSpaceOnUse"><stop offset="0" stop-color="#fff"/><stop offset=".22" stop-color="#bfbfbf"/><stop offset=".47" stop-color="#7c7c7c"/></linearGradient></defs><path class="uuid-5bdd90a2-c211-460f-adbe-53630510e7df" d="m126.57,84.92c1.71,57.69,3.41,115.37,5.12,173.06,20.14-1.9,42.85-3.06,67.7-2.69,27.54.41,52.44,2.6,74.18,5.54,1.31-57.32,2.63-114.64,3.94-171.96-50.31-1.32-100.63-2.63-150.94-3.95Z"/><path class="uuid-09cf2035-60ff-4261-adb6-fd353df9b997" d="m113.15,1534.59c10.78,19.35,20.79,27.78,33.55,38.24,12.58,10.31,31.65,22.65,56.16,26.07,17.8,2.49,8.66,0,210.07,0h0c93.46,0,209.51-2.04,334.07-5.21-.24-477.4-.49-954.8-.73-1432.2-211.77,1.16-423.54,2.32-635.31,3.48,16.61,12.79,50.95,43.15,60.9,90.38,2.51,11.91,3.06,22.94,2.6,32.66-39.49,3.67-78.98,7.33-118.47,11,1.56,209.67,2.99,419.31,4.27,628.9.47,76.62,1.4,238.06,1.82,314.68,0,0-9.66,48.55,20.42,194.67,13.42,65.18,26.72,90.31,30.63,97.33Z"/><path class="uuid-050274df-5ffb-4d21-aac6-7ce9e4a6f489" d="m169.81,210.73c2.82.12,7.32.45,12.86,1.54,1.07,2.8,2.26,6.84,2.57,11.83.38,5.92-.63,10.76-1.54,13.89-.77,9.86-1.54,19.72-2.32,29.58-1.63,1.29-3.26,2.57-4.89,3.86-4.95.02-9.92.02-14.92,0-12.85-.05-25.54-.22-38.07-.51-6.99.24-14.11.42-21.35.51-9.2.12-18.2.12-27.01,0-2.37-1.46-8.06-5.3-7.72-9.77.36-4.68,7.13-7.57,9.77-8.75,36.68-16.26,52.76-43.87,92.6-42.18Z"/><path class="uuid-65688ecb-7504-4f0f-8046-481a220ce6b3" d="m84.16,263.97c-8.47.4-10.38,1.57-10.55,2.57-.23,1.32,2.46,3.07,4.37,3.86,2.4,1,4.52.88,5.83.82,2.06-.09,5.94.27,13.72.21,9.1-.07,9.86.19,13.63-.26,4.7-.56,8.51-1.54,11.06-2.32,16.38.26,32.75.51,49.13.77.39.06,3.89.52,6.43-2.06,1.77-1.8,2.01-3.99,2.06-4.63.69-15,1.37-30.01,2.06-45.01-.34-1.09-1.1-2.89-2.83-4.12-1.77-1.25-3.68-1.27-4.89-1.29-3.92-.05-8.4-.16-13.63-.26-2.49-1.29-4.97-2.57-7.46-3.86,7.55.09,15.09.17,22.64.26.72-.1,4.58-.59,7.97,2.06,2.49,1.94,3.34,4.47,3.6,5.4-.86,16.21-1.71,32.41-2.57,48.62-.15,1.2-.65,3.68-2.57,5.92-3.77,4.39-9.64,3.92-10.29,3.86-20.53-.78-41.55-1.31-63.02-1.54-17.37-.19-34.43-.18-51.19,0-10.29-4.63-20.58-9.26-30.87-13.89,18.18-.51,36.35-1.03,54.53-1.54.94,2.14,1.89,4.29,2.83,6.43Z"/><path class="uuid-03ef46c9-218c-412d-abde-289957a2033b" d="m176.24,208.67c-.14.39-.35,1.01-.51,1.8-.23,1.1-.25,1.96-.26,2.32-.03,1.56-.36,18.79-.77,42.44.05.24.39,2.22-1.03,3.86-1.5,1.72-3.64,1.56-3.86,1.54-10.2-.17-20.41-.34-30.61-.51,3.17-17.23,6.34-34.47,9.52-51.7,9.17.09,18.35.17,27.52.26Z"/><path class="uuid-09cf2035-60ff-4261-adb6-fd353df9b997" d="m89.19,272.06c-.82,1.59-2.14,4.1-4.08,6.98,0,0-1.45,2.13-3.04,4.08-2.92,3.56-12.63,10.29-26.5,15.69,121.52.56,243.04,1.12,364.55,1.68-11.21-41.12-22.43-82.23-33.64-123.35-94.53-5-189.05-10.01-283.58-15.01.32,9.11.42,18.79.22,28.98-.11,5.73-.31,11.28-.58,16.65,0,0-2.37,43.13-13.34,64.31Z"/><path class="uuid-2f989ad4-8e30-4a32-8f0f-bd4bde4517ae" d="m296.99,122c-.82-18.05-3.56-49.34-18.79-60.33-5.39-3.89-10.22-4.91-19.78-6.92-19.51-4.11-25.75.8-54.4,1.98-28.23,1.16-42.34,1.74-52.42,0-4.58-.79-10.72-2.1-16.81.99-7.11,3.61-10.21,11.22-15.24,23.56-.71,1.74-3.71,9.26-5.89,19.72,0,0-1.2,5.74-1.76,10.88-1.82,16.57,3.58,34.51,6.07,41.77,7.2,20.99,18.27,34.74,24.53,42.38,5.36,6.54,10.37,11.55,14.04,14.98.92.23,7.52,1.76,13.24-2.53,3.92-2.95,5.19-6.97,5.55-8.34-2.13-2.55-4.95-6.12-7.98-10.58-1.69-2.5-8.78-13.16-14.77-28.98-3-7.93-6.26-18.57-8.17-31.48,3.35,3.02,8.71,7.27,16.09,10.71,8.27,3.86,14.3,4.5,41.54,5.93,29.45,1.55,34.62,1.45,41.54-1.98,8.27-4.1,13.62-10.28,16.81-14.84,2.45,8.27,4.71,18.51,5.67,30.36.62,7.66.59,14.66.22,20.84,1.68,1.12,7.88,4.94,16.01,3.73,4.55-.68,7.86-2.66,9.65-3.95,5.23-23.84,5.68-43.86,5.04-57.9Z"/><path class="uuid-214381f3-6975-43c0-b3d0-eae2ebd9ca2f" d="m184.56,220.94c.21.24.4.44.6.65,2.1,2.18,5.48,5.08,5.48,5.08,2.11,2.08,4.23,4.16,6.34,6.24.17.12.8.53,1.52.35.71-.18,1.05-.82,1.31-1.31.7-1.32.53-2.7.39-3.38-12.44-12.1-15.42-15.4-15.3-15.3,2.21,1.82,4.24,3.03,5.74,3.83,3.13,1.66,5.58,2.9,7.65,1.91.97-.47,1.56-1.28,1.91-1.91-1.42-.77-3.49-2-5.74-3.83-2.21-1.8-2.47-2.5-5.74-5.74-5.14-5.09-7.1-5.99-8.12-6.38-1.98-.77-3.77-.95-4.95-.99-1.13-1.3-2.27-2.64-3.41-4.03-2.47-3.01-4.73-5.98-6.8-8.88-11.69-7.78-22.58-9.32-26.7-4.95-.85.9-1.93,2.61-1.98,5.93,3.69,5.34,8.24,11.07,13.85,16.81,2.1,2.15,4.19,4.14,6.25,5.98.14,1.21.41,2.93.99,4.95,1.16,4.02,2.85,6.78,4.09,8.76,4.34,6.92,8.6,12.97,10.74,15.96.65.34,1.66.78,2.97.99,1.23.19,2.26.11,2.97,0,2.09,2,4.18,4,6.28,6,.43.17,1.06.39,1.86.57,4.61,1.03,8.21-.99,11.09-2.61.39-.22,1-.59,1.31-1.31.33-.78.13-1.57,0-1.96-11.43-15.18-14.58-19.81-15.59-21.47-.07-.11-1.14-1.87-.99-1.98.15-.11,1.24,1.16,1.98,1.98Z"/><path class="uuid-03ef46c9-218c-412d-abde-289957a2033b" d="m27.05,217.41h-4.89c-1.47,2.18-4.39,7.15-4.89,14.15-.54,7.64,2.11,13.38,3.34,15.69,1.54-.17,3.09-.34,4.63-.51.6-9.77,1.2-19.55,1.8-29.32Z"/><path class="uuid-65688ecb-7504-4f0f-8046-481a220ce6b3" d="m24.22,224.87c-.44,2.79-1.66,11.4,0,22.64.72,4.86,1.75,8.82,2.57,11.58,3.77,1.37,7.55,2.74,11.32,4.12,39.53.77,79.05,1.54,118.58,2.32.82.11,3.16.3,5.66-1.03,1.78-.95,2.95-2.37,3.86-3.86,8.11-13.33,8.49-30.35,8.49-30.35s.26-11.63-4.2-22.07c-.32-.76-.88-1.94-1.98-3.14-2.87-3.14-6.97-3.66-8.49-3.86-7.22-.93-55.51-.66-121.67.77-1.95.55-4.69,1.62-7.2,3.86-4.73,4.21-5.49,9.85-6.95,19.03Z"/><path class="uuid-050274df-5ffb-4d21-aac6-7ce9e4a6f489" d="m53.29,257.8c-.39-3.06,1.26-5.29,1.54-5.66,2.34-3.05,6-3.09,6.43-3.09,2.22.64,4.44,1.29,6.66,1.93-2.09-1.93-4.96-3.29-7.95-2.96-2.78.3-6.18,2.12-7.46,5.66-1.08,2.99-.59,7.1,2.06,9,1,.72,2.07.95,2.83,1.03.02,0,.03,0,.05,0-1.38-.83-3.75-2.71-4.17-5.92Z"/><path class="uuid-050274df-5ffb-4d21-aac6-7ce9e4a6f489" d="m76.18,263.97c-.86-.62-2.04-1.61-3.09-3.09-.8-1.12-1.2-2.09-1.48-2.99-.26,2.91-2.03,4.93-2.37,5.31-.27.3-.55.57-.83.8,2.99.02,5.82,0,7.78-.03Z"/><path class="uuid-177bdd76-6bfc-4c7d-9c4a-758f1d7d158d" d="m70.52,254.45c-.56-1.21-1.47-2.42-2.6-3.47-2.22-.64-4.44-1.29-6.66-1.93-.43,0-4.09.03-6.43,3.09-.28.37-1.94,2.6-1.54,5.66.41,3.21,2.79,5.09,4.17,5.92.54.33.93.49.98.51,2.49.43,4.97.86,7.46,1.29.52-.03,2.52-.19,4.12-1.8,2.3-2.33,1.66-5.56,1.6-5.82-.37-1.17-.53-2.25-1.09-3.44Z"/><path class="uuid-03ef46c9-218c-412d-abde-289957a2033b" d="m59.72,249.82c3.93-.08,7.01,3.7,6.69,7.46-.27,3.12-2.85,6-6.17,6.17-3.68.2-6.87-2.99-6.95-6.69-.07-3.61,2.84-6.87,6.43-6.95Z"/><path class="uuid-050274df-5ffb-4d21-aac6-7ce9e4a6f489" d="m107.69,258.83c.6,1.46,1.2,2.92,1.8,4.37h16.72c-.34-1.54-.69-3.09-1.03-4.63-5.83.09-11.66.17-17.49.26Z"/><path class="uuid-03ef46c9-218c-412d-abde-289957a2033b" d="m108.59,260.89c5.66-.09,11.32-.17,16.98-.26-.17-.6-.34-1.2-.51-1.8l-.77-1.54c.26-3.34.51-6.69.77-10.03-6.43.17-12.86.34-19.29.51v2.83c3.09-.09,6.17-.17,9.26-.26-.64.25-1.84.82-2.83,2.06-.53.66-.84,1.3-1.03,1.8-1.17-.68-2.62-.57-3.6.26-1.26,1.06-1.04,2.73-1.03,2.83.69,1.2,1.37,2.4,2.06,3.6Z"/><path class="uuid-050274df-5ffb-4d21-aac6-7ce9e4a6f489" d="m122.48,231.82c-.33,0-.96-10.17-.26-22.08.22-3.69.52-6.79.77-9.04h1.29c-.14,1.92-.32,4.57-.51,7.71-1.02,16.41-1.01,23.41-1.29,23.41Z"/><line class="uuid-02f046b6-b938-45b0-a879-ef9a7254da31" x1="64.74" y1="264.61" x2="119.27" y2="255.87"/><line class="uuid-02f046b6-b938-45b0-a879-ef9a7254da31" x1="122.35" y1="252.01" x2="122.35" y2="230.92"/><circle class="uuid-8589a3d0-7a74-4a52-8875-f87adbbc646e" cx="119.65" cy="252.91" r="3.34"/><circle class="uuid-8589a3d0-7a74-4a52-8875-f87adbbc646e" cx="59.98" cy="256.51" r="1.8"/><path class="uuid-050274df-5ffb-4d21-aac6-7ce9e4a6f489" d="m130.2,217.01c.39,1.23,1.41,2.1,2.57,2.21,1.33.12,2.62-.78,3.09-2.21.17-5.44.34-10.88.51-16.31h-5.4c-.26,5.44-.51,10.88-.77,16.31Z"/><path class="uuid-03ef46c9-218c-412d-abde-289957a2033b" d="m29.11,251.37c-.39.19-1.48.78-2.06,2.06-.72,1.59-.27,3.43.77,4.63,1.33,1.52,3.4,1.74,4.89,1.29,1.03-.31,1.71-.92,2.06-1.29.34-.69.69-1.37,1.03-2.06.04-.34.22-2.17-1.03-3.6-1.29-1.48-3.59-1.92-5.66-1.03Z"/><path class="uuid-050274df-5ffb-4d21-aac6-7ce9e4a6f489" d="m41.84,254.07c.38-.44,1.09-1.15,2.16-1.67h-6.92c-.14.31-.55,1.32-.26,2.57.33,1.38,1.29,2.13,1.54,2.32h.83c.79-.74,1.57-1.49,2.36-2.23.1-.33.19-.66.29-.99Z"/><path class="uuid-050274df-5ffb-4d21-aac6-7ce9e4a6f489" d="m45.83,257.28s.13-.16.23-.32c-.14.1-.29.2-.46.32h.23Z"/><path class="uuid-03ef46c9-218c-412d-abde-289957a2033b" d="m46.6,254.71c-.16-1.39-1.11-2.18-1.29-2.32h-1.31c-1.07.52-1.78,1.23-2.16,1.67-.1.33-.19.66-.29.99-.65.48-1.37.97-2.16,1.46-.62.38-1.22.72-1.8,1.03-.7.91-.64,2.13,0,2.83.79.86,2.41.86,3.34-.26,1.13-.88,2.27-1.77,3.4-2.65.14.13.28.26.42.39.32-.22.6-.4.84-.57.17-.12.33-.23.46-.32.27-.43.65-1.22.54-2.25Z"/><path class="uuid-03ef46c9-218c-412d-abde-289957a2033b" d="m77.21,201.98c1.14.87,3.55,2.45,6.95,2.83,5.98.67,10.27-2.92,11.06-3.6,1.2-.09,2.4-.17,3.6-.26v-8.49c-1.92-1.01-6.32-2.97-12.09-2.57-4.08.28-7.2,1.62-9,2.57-.17,3.17-.34,6.34-.51,9.52Z"/><path class="uuid-050274df-5ffb-4d21-aac6-7ce9e4a6f489" d="m52,228.47c.09,8.07,14.39,14.89,26.08,15.18,13.23.32,28.52-7.6,28.45-15.69-.07-8.2-15.93-16.03-29.5-15.18-11.33.71-25.11,7.73-25.03,15.69Z"/><path class="uuid-65688ecb-7504-4f0f-8046-481a220ce6b3" d="m55.63,233.36c-.44.4-1.14.68-1.76.51-.24-.06-.72-.26-1.58-2.06-.32-.67-.72-1.63-1.05-2.83-.17-2.32-.34-4.63-.51-6.95.02-.36.11-1.25.77-2.06,1.12-1.38,2.89-1.3,3.09-1.29,25.18-.14,42.51-.24,43.78-.26.07,0,.31,0,.63,0,.65.03,1.66.13,2.81.51,1.1.36,1.97.85,2.61,1.29.45.7,1.05,1.75,1.58,3.09.56,1.42,1.07,2.7,1.05,4.37,0,.82-.16,2.48-1.29,4.37-.13.2-.68,1.03-1.76,1.29-1.07.26-2.24-.14-3.01-1.03-.9-.34-1.8-.69-2.71-1.03-14,.17-28,.34-42,.51,0,.13,0,.94-.66,1.54Z"/><path class="uuid-a28b4d14-575b-4b77-9964-488cec0d4760" d="m92.43,273.37c24.26.26,48.53.51,72.79.77h0s0,0,0,0c0,0-17.39-.39-42.95,3.86-19.58,3.25-35.1,7.75-40.64,9.77-.35.13-8.49,3.1-8.49,3.09,0,0,0,0,0,0,2.82-1.59,6.12-3.76,9.52-6.69,4.39-3.78,7.56-7.65,9.77-10.8Z"/><path class="uuid-214381f3-6975-43c0-b3d0-eae2ebd9ca2f" d="m285.75,216.74c-.27-1.89-.74-3.52-1.23-4.84.63-1.98,1.25-4.04,1.84-6.16.86-3.06,1.43-5.38,1.72-6.6,1.47-6.01,2.56-11.73,3.2-15.3.44-3.07.88-6.14,1.32-9.21-1.41-.8-7.6-4.08-15.35-2.19-6.11,1.49-9.73,5.35-10.97,6.8,0,5.34-.36,11.39-1.32,17.99-.65,4.44-1.48,8.55-2.41,12.28-.96.6-2.31,1.57-3.74,3.05,0,0-.18.18-.33.35-.83.93-2.2,2.92-4.48,8.79-1.66,4.29-1.61,5.03-2.9,7.58-1.3,2.59-2.69,4.55-3.68,5.83.58.43,1.45.94,2.53.97,2.29.06,4.02-2.08,6.2-4.87,1.05-1.34,2.4-3.28,3.68-5.83.07-.14-1.3,4.08-7.72,20.21,0,.36.04,1.18.56,2.04.44.72,1,1.12,1.31,1.31.18.08,1.13.46,1.96,0,.17-.1.32-.22.43-.34,4.44-9.37,6.18-13.93,6.91-16.37.16-.52.79-2.66,1-2.61.18.04-.02,1.63-.1,2.21-.24,1.91-1.1,7.01-4.52,22.91-.03.14-.16.75.19,1.38.37.67,1.02.88,1.14.92,1.38.15,3.02.21,4.86.02,4.22-.44,7.45-1.97,9.43-3.13.63-1.72,1.26-3.43,1.88-5.15.69-.19,1.67-.53,2.71-1.21,1.11-.72,1.85-1.53,2.31-2.11.7-5.01,1.39-10.03,2.09-15.04.34-.56.78-1.44,1-2.61.17-.88.15-1.65.1-2.21.48-2.08.91-5.18.38-8.84Z"/><path class="uuid-70cde763-5a5b-4651-bc17-1c8066573c86" d="m266.29,179.23c8.86-6.68,18.22-8.08,22.81-4.17.93.8,2.15,2.22,2.85,4.83.44-2.05.88-4.09,1.32-6.14-.45-3.8-1.95-5.43-2.85-6.14-4.48-3.57-14.45-.97-23.91,7.9-.07,1.24-.15,2.49-.22,3.73Z"/><path class="uuid-70cde763-5a5b-4651-bc17-1c8066573c86" d="m167.37,189.54c-11.17-6.88-21.98-8.2-26.76-3.51-.91.89-1.85,2.24-2.41,4.39-.5-.51-1.02-1.09-1.54-1.75-.73-.93-1.3-1.82-1.75-2.63-.56-3.98.45-5.85,1.32-6.8,3.88-4.23,15.59-1.43,29.39,7.24.58,1.02,1.17,2.05,1.75,3.07Z"/><path class="uuid-bd289476-f46c-43cd-aa54-a21c218354fe" d="m288,201.17c-.46-.57-1.11-1.31-1.95-2.07.43-1.61.07-3.1-.86-3.42-.72-.24-1.58.27-2.24,1.21-.65-.35-1.35-.68-2.12-.96.04-1.81-.65-3.28-1.76-3.47-1.08-.19-2.22.9-2.81,2.56-.8-.04-1.58,0-2.33.07-.32-1.08-.97-1.82-1.72-1.82-.91,0-1.67,1.08-1.87,2.54-3.32,1.01-5.63,2.64-6.04,2.94-1.47.71-2.1,2.02-1.75,2.85.22.52.79.77,1.1.88,2.15-1.84,4.56-3.15,7.03-3.89.35.81.91,1.34,1.54,1.34.79,0,1.46-.82,1.76-1.99.64-.06,1.27-.07,1.9-.05.13,1.48.78,2.6,1.74,2.77.94.17,1.91-.63,2.54-1.93.2.07.4.15.6.24.44.19.86.4,1.25.62-.08,1.18.3,2.14,1.04,2.39.49.17,1.06-.02,1.57-.46,1.03.97,1.78,1.95,2.28,2.71.24-.01.73-.08,1.1-.44.58-.57.62-1.68,0-2.63Z"/><path class="uuid-d491c09c-628c-4fef-b0b7-a6d4e4a41543" d="m161.5,91.34c-2.22-8.79-3.39-14.32-7.91-20.77-5.06-7.22-11.48-11.49-16.05-13.94,5.85-1.84,14.39-4.02,24.95-4.85.99-.08,5.46-.58,11.49-.33,9.76.4,15.45,2.56,31.04,2.31,17.89-.28,24.49-3.35,34.6-3.59,5.49-.13,8.5.43,9.9.62,12.45,1.69,21.89,6.54,27.73,10.22-3.35.58-9.24,2.06-15.06,6.42-1.46,1.09-4.61,3.64-7.73,8.08-5.63,8.01-6.64,15.74-8.14,23.44-3.25,16.77-5.11,26.34-10.31,33.56-4.09,5.68-12.02,12.35-29.03,15.19-19.08-3.02-28.02-10.38-32.64-16.81-4.45-6.19-7.25-17.31-12.86-39.56Z"/><path class="uuid-2f989ad4-8e30-4a32-8f0f-bd4bde4517ae" d="m174.83,114.31c-2.94-7.28-3.99-13.29-4.39-16.01-1.41-9.64-2.76-18.88,1.32-23.25,9.36-10.04,47.48,3.84,48.47,18.2.88,12.66-27.26,24.65-23.69,35.53.67,2.04,3.14,6.13,3.95,7.46,2.46,4.06,4.87,7.17,6.58,9.21-5.33-1.45-12.8-4.42-19.52-10.75-7.22-6.79-10.27-14.33-12.72-20.4Z"/><path class="uuid-2f989ad4-8e30-4a32-8f0f-bd4bde4517ae" d="m237.56,79.66c2.98,1.83,2.22,8.57.88,20.4-.61,5.43-1.54,12.96-6.14,21.06-2.75,4.84-4.37,7.69-7.9,9.65-3.53,1.96-6.67,1.76-9.65,4.83-1.79,1.84-2.63,3.96-3.07,5.48-6.99-1.1-15.82-3.63-18.64-10.09-7.88-18.05,35.54-56.86,44.53-51.32Z"/><path class="uuid-d491c09c-628c-4fef-b0b7-a6d4e4a41543" d="m170.57,72.77c.87-3.5,4.14-14.65,14.84-21.76,11.63-7.73,28.99-8.64,40.55.99,8.22,6.85,10.3,16.36,10.88,19.78-.33,3.63-.66,7.25-.99,10.88,1.17.67,1.71,1.44,1.98,1.98,1.31,2.6-.19,6.68-3.96,9.89-.14,3.71-.58,9.23-1.98,15.82-.98,4.63-1.53,7.22-2.97,9.89-1.19,2.22-5.18,8.56-16.81,11.87h-11.87c-10.32-1.21-15.1-5.93-16.81-7.91-.67-.78-2.62-3.15-5.93-12.86-2.29-6.7-3.68-12.34-4.51-16.19-4.18-3.02-5.69-7.17-4.39-9.52.23-.42.92-1.44,2.85-2.04-.29-3.61-.58-7.21-.88-10.82Z"/><path class="uuid-214381f3-6975-43c0-b3d0-eae2ebd9ca2f" d="m229.88,116.72c-.2,1.34-.54,2.51-.95,3.52-3.58,8.79-14.5,11.37-16.81,11.87,0,.61-.11,2.06-1.09,3.47-1.52,2.2-3.96,2.57-4.39,2.63-.61-.1-3.8-.7-5.48-3.51-.57-.95-.8-1.89-.9-2.6-1.2,0-11.5-.08-16.81-7.91-1.71-2.53-2.4-5.11-2.68-7.04,7.09,1.22,15.77,2.14,25.66,1.97,8.97-.15,16.89-1.16,23.47-2.41Z"/><path class="uuid-5bdd90a2-c211-460f-adbe-53630510e7df" d="m200.66,129.1c-1.56.06-3.75-.05-6.2-.81-1.29-.4-2.39-.89-3.29-1.38-.22.22-.54.49-.97.73-.39.22-.75.35-1.03.42.38.1.93.19,1.59.14.43-.03.79-.12,1.08-.21-.16.18-.34.37-.56.56-.8.68-1.66.97-2.24,1.11.69.02,1.6-.03,2.63-.29.56-.14,1.05-.32,1.47-.51-.12.24-.29.5-.52.77-.61.72-1.33,1.07-1.77,1.24.63-.09,1.44-.27,2.33-.68.47-.22.87-.45,1.21-.68.83.1,1.81.16,2.92.1,1.32-.07,2.46-.28,3.37-.52Z"/><path class="uuid-5bdd90a2-c211-460f-adbe-53630510e7df" d="m222.57,126.91c-1.45.59-3.54,1.23-6.11,1.36-1.35.07-2.55-.02-3.56-.17-.13.28-.34.65-.66,1.02-.29.34-.59.58-.83.75.39-.04.94-.14,1.54-.41.39-.18.7-.38.94-.56-.09.23-.2.47-.34.71-.52.91-1.23,1.48-1.73,1.81.66-.22,1.5-.57,2.37-1.17.48-.33.88-.66,1.2-.98-.04.26-.1.57-.23.9-.33.88-.89,1.46-1.24,1.77.56-.3,1.26-.75,1.96-1.43.37-.36.67-.72.9-1.05.81-.19,1.76-.47,2.78-.9,1.22-.52,2.22-1.11,2.99-1.64Z"/><path class="uuid-aee70fb1-2d4c-4260-b80e-e45436acf470" d="m186.71,122.13c.99-.22,2.13-.36,3.39-.34,5.27.09,9.08,3.02,10.62,4.38.07.46.15.91.22,1.37-1.47-1.16-5.42-3.96-10.73-3.73-1.5.06-2.81.35-3.89.71l.38-2.38Z"/><path class="uuid-aee70fb1-2d4c-4260-b80e-e45436acf470" d="m223.87,122.13c-.99-.22-2.13-.36-3.39-.34-5.27.09-9.08,3.02-10.62,4.38-.07.46-.15.91-.22,1.37,1.47-1.16,5.42-3.96,10.73-3.73,1.5.06,2.81.35,3.89.71l-.38-2.38Z"/><path class="uuid-33993fef-e9c3-44e0-915d-2c720eb6f23f" d="m726.27,212.2c-3.74-2.97-7.52-6.06-11.33-9.28-7.58-6.4-14.67-12.79-21.28-19.08.11-.16.33-.4.68-.55.85-.37,1.69.17,1.77.22,6.97,3.88,14.19,8.21,21.57,13.03,3.69,2.41,7.25,4.83,10.67,7.25-.69,2.8-1.38,5.6-2.07,8.41Z"/><path class="uuid-177bdd76-6bfc-4c7d-9c4a-758f1d7d158d" d="m723.64,211.99c4.57,1.87,9.14,3.74,13.71,5.61,1.63-1.37,4.02-3.17,7.19-4.8,3.14-1.62,5.5-2.84,8.9-3.17,4.15-.4,7.72.71,10.5,1.57,1.49.47,2.71.95,3.57,1.32,0,.63.01,1.25.02,1.88l3.94,1.78c.55-.37,1.1-.75,1.66-1.12.9.27,2.99.76,5.33-.04,2.68-.91,5.43-3.44,5.54-6.55.07-2.07-1.05-3.61-1.7-4.5-3.31-4.53-9.29-5.12-11.12-5.3-3.22-.32-5.55.21-8.76.94-5.55,1.26-9.57,3.28-13.62,5.35-3.14,1.6-5.69,3.15-7.56,4.35-3.55-1.36-7.1-2.72-10.66-4.09-.91.63-1.9,1.38-2.9,2.28-1.73,1.56-3.05,3.13-4.04,4.5Zm41.63-8.52c.35-.32.94-.77,1.77-1.07.89-.32,1.71-.35,2.57-.28,3.58.28,6.83,2.08,8.48,3.82.23.24.56.62.75,1.2.33.98.12,2.11-.47,2.95-.77,1.09-1.98,1.34-2.52,1.45-1.05.21-2.22.11-4.37-.82-1.7-.74-6.91-2.99-6.79-5.65.04-.91.58-1.61.58-1.61Z"/><path class="uuid-65688ecb-7504-4f0f-8046-481a220ce6b3" d="m727.63,207.46c1-.9,1.98-1.66,2.9-2.28,3.55,1.36,7.1,2.72,10.66,4.09.96-.62,2.11-1.33,3.42-2.09.39.7.63,1.47.57,2.38-.07,1.11-.39,2.34-.98,3.37-3.02,1.59-5.32,3.32-6.9,4.65-4.57-1.87-9.14-3.74-13.71-5.61.99-1.37,2.31-2.94,4.04-4.5Z"/><path class="uuid-33993fef-e9c3-44e0-915d-2c720eb6f23f" d="m724.24,212.26c-5.3-2.13-10.8-4.5-16.46-7.14-6.71-3.12-12.99-6.32-18.85-9.5-.14-.11-.64-.51-.75-1.2-.05-.29-.01-.54.03-.7,7.54,1.65,15.37,3.62,23.45,5.98,3.05.89,6.04,1.81,8.96,2.75,2.07,1.03,4.15,2.06,6.22,3.09-.52,1.68-1.04,3.36-1.56,5.05-.35.56-.7,1.12-1.05,1.68Z"/><path class="uuid-78f8f7b3-dd98-4f87-94e2-c120b00bf7f8" d="m726.29,212.17c-3.74-2.97-7.52-6.06-11.33-9.28-7.58-6.4-14.67-12.79-21.28-19.08.32.02.73.09,1.18.25.81.29,1.37.74,1.68,1.05,6.85,5.63,13.7,11.25,20.55,16.88,3.21,2.55,6.42,5.1,9.63,7.65-.14.85-.28,1.69-.43,2.54Z"/><path class="uuid-177bdd76-6bfc-4c7d-9c4a-758f1d7d158d" d="m725.84,208.38c-.2,1.84.09,3.36.35,4.32,4.39,3.22,8.78,6.45,13.17,9.67,1.91.43,3.83.86,5.74,1.29,2.92,4.71,5.97,8.09,8.27,10.34,3.05,2.98,5.65,5.47,9.9,7.05,2.01.75,7.06,2.63,10.68.22.42-.28,2.15-1.43,2.56-3.44.34-1.66-.37-3.11-.99-4.18-2.24-3.9-5.26-6.22-10.02-10.27-4.93-4.19-5.77-5.15-8.28-6.18-2.36-.97-4.04-1.65-6.27-1.39-1.63.19-5.53,1.13-8.83,2.05-.29.08-.94.26-1.41-.06-.22-.15-.65-.58-.49-3.38.05-.79.14-1.81.35-3-4.24-2.82-8.47-5.64-12.71-8.46-.63.92-1.73,2.8-2.01,5.41Zm26.77,12.65c1.09-.5,2.47.37,3.32.92,3.51,2.29,6.33,4.52,6.94,5,0,0,6.22,4.88,8.87,7.73.27.29.85.94.71,1.61-.15.7-1.02,1.07-1.42,1.23-.84.34-2.52.76-5.88-.35-1.46-.48-3.61-1.38-5.93-3.1-.61-.51-1.6-1.37-2.74-2.53-2.63-2.69-5.79-5.91-5.1-8.76.05-.2.33-1.34,1.22-1.75Z"/><path class="uuid-5bdd90a2-c211-460f-adbe-53630510e7df" d="m768.83,202.14c.25,0,.52.01.81.04,3.58.28,6.83,2.08,8.48,3.82.22.24.56.62.75,1.2.32.98.07,2.09-.5,2.89-.78,1.09-1.99,1.34-2.52,1.45-.17.04-.4.07-.72.07-.68,0-1.78-.17-3.65-.89,0,0-5.4-2.08-6.58-4.84-.07-.16-.18-.41-.18-.75-.01-1.22,1.32-2.25,2.35-2.67.52-.21,1.05-.31,1.76-.31m0-1.83c-.94,0-1.7.14-2.46.45-1.62.67-3.51,2.22-3.49,4.39,0,.71.23,1.23.33,1.46,1.42,3.3,6.59,5.43,7.61,5.82,1.77.68,3.19,1.02,4.31,1.02.49,0,.86-.06,1.09-.11.67-.14,2.45-.5,3.65-2.18.94-1.31,1.22-3.04.75-4.52-.29-.89-.77-1.48-1.16-1.9-1.71-1.81-5.26-4.04-9.67-4.39-.35-.03-.66-.04-.96-.04h0Z"/><path class="uuid-5bdd90a2-c211-460f-adbe-53630510e7df" d="m753.36,220.94c.93,0,1.93.64,2.6,1.07,3.51,2.29,6.33,4.52,6.94,5,.95.74,7.05,5.51,8.87,7.73.38.46.79,1.08.63,1.67-.04.15-.24.73-1.54,1.18-.25.08-.85.27-1.85.27s-2.26-.17-3.97-.74c-.64-.21-2.94-1.02-5.57-2.94-1.3-.95-2.16-1.79-2.95-2.57-4.84-4.79-5.28-8.04-5.1-8.77.05-.2.33-1.34,1.22-1.75.23-.11.47-.15.72-.15m0-1.83c-.53,0-1.03.11-1.49.32-1.09.5-1.89,1.56-2.23,2.98-.36,1.49.41,5.37,5.59,10.5.77.76,1.72,1.7,3.16,2.75,2.57,1.88,4.91,2.81,6.07,3.2,1.65.55,3.19.83,4.55.83.9,0,1.72-.12,2.44-.37,1.87-.63,2.51-1.67,2.72-2.43.43-1.59-.63-2.88-.98-3.31-1.8-2.2-7-6.34-9.16-8.02l-.07-.06c-2.35-1.85-4.71-3.54-7-5.03-.73-.48-2.1-1.37-3.6-1.37h0Z"/><circle class="uuid-5bdd90a2-c211-460f-adbe-53630510e7df" cx="733.2" cy="212.13" r="2.75"/><path class="uuid-03ef46c9-218c-412d-abde-289957a2033b" d="m719.73,278.55l1.22,1.63c1.61-.35,4.49-1.19,7.41-3.4,2.77-2.1,4.33-4.5,5.11-5.92l-1.32-1.77c-1.7.5-4.34,1.5-7.07,3.57-2.74,2.08-4.41,4.38-5.34,5.89Z"/><path class="uuid-2f989ad4-8e30-4a32-8f0f-bd4bde4517ae" d="m705.07,257.74c1.32-1.36,2.98-2.87,5-4.36,2.2-1.62,4.31-2.82,6.12-3.71,5.1,6.85,10.2,13.69,15.3,20.54-.64,1.16-1.85,3-3.95,4.64-2.71,2.11-5.46,2.77-6.86,3l-15.61-20.1Z"/><path class="uuid-03ef46c9-218c-412d-abde-289957a2033b" d="m703.88,257.57c.4.06.79.12,1.19.17,1.4-1.44,3.19-3.07,5.41-4.67,2.05-1.47,4.01-2.58,5.71-3.41.02-.44.05-.88.07-1.32l-.91-1.22c-4.17,3.11-8.34,6.22-12.51,9.32.35.37.7.75,1.05,1.12Z"/><rect class="uuid-09cf2035-60ff-4261-adb6-fd353df9b997" x="747" y="886.74" width="52.6" height="713.26"/><path class="uuid-a28b4d14-575b-4b77-9964-488cec0d4760" d="m742.28,883.36c-9.81-5.75-18.65-8.85-25-10.6-23.27-6.42-42.9-2.98-50.75-1.51-4.12.77-7.51,1.63-9.85,2.27,10.75-.05,22.42.37,34.84,1.51,18.91,1.74,35.92,4.8,50.75,8.33Z"/><path class="uuid-a28b4d14-575b-4b77-9964-488cec0d4760" d="m743.8,888.66c-8.76-3.06-23.45-6.69-40.9-3.79-12.81,2.13-21.91,6.92-28.78,10.6-8.24,4.42-20.51,12.28-32.57,25.75,8.04-5.19,17.37-10.43,28.03-15.15,28.52-12.63,54.97-16.48,74.23-17.42Z"/><path class="uuid-a28b4d14-575b-4b77-9964-488cec0d4760" d="m744.55,897c-5.76.77-12.6,2.55-19.44,6.48-25.86,14.85-29.13,47.31-29.52,51.84,5.64-7.55,11.63-15.25,18-23.04,10.42-12.75,20.8-24.5,30.96-35.28Z"/></svg>