<?xml version="1.0" encoding="UTF-8"?><svg id="uuid-b34004a5-d0c7-4c40-b8b3-081f57c0bff7" xmlns="http://www.w3.org/2000/svg" width="949" height="501.5" viewBox="0 0 949 501.5"><defs><style>.uuid-97a44502-1ffc-4ba2-a89e-4410c71c0a76{fill:#db623c;}.uuid-97a44502-1ffc-4ba2-a89e-4410c71c0a76,.uuid-6c9f9818-c574-4a22-9a5c-498f4d1d027a,.uuid-17192a57-1234-48aa-bf3e-f7cba5a34804,.uuid-a3f5af82-a130-4650-b163-53a65f097603,.uuid-d7fa60fc-2132-45e1-b02a-ef12e62fe1c3,.uuid-d2983df4-8422-4d21-a9e5-cb84869d6e89,.uuid-2bcebe58-f43e-4977-93fd-853c857589ce{stroke-width:0px;}.uuid-6c9f9818-c574-4a22-9a5c-498f4d1d027a{fill:#cd4c30;}.uuid-17192a57-1234-48aa-bf3e-f7cba5a34804{fill:#fcf5f0;}.uuid-a3f5af82-a130-4650-b163-53a65f097603{fill:#fae8db;}.uuid-d7fa60fc-2132-45e1-b02a-ef12e62fe1c3{fill:#aa3a29;}.uuid-24a194b8-f283-40d9-80ec-840d53d40d93{fill:none;stroke:#cd4c30;stroke-linecap:round;stroke-linejoin:round;stroke-width:3px;}.uuid-d2983df4-8422-4d21-a9e5-cb84869d6e89{fill:#883228;}.uuid-2bcebe58-f43e-4977-93fd-853c857589ce{fill:#e2815a;}</style></defs><path class="uuid-d2983df4-8422-4d21-a9e5-cb84869d6e89" d="m637,156c10.96.46,28.45,1.76,50,6,4.14,10.87,8.77,26.6,10,46,1.46,23.02-2.45,41.85-6,54-3,38.33-6,76.67-9,115-6.33,5-12.67,10-19,15-19.24.07-38.57.07-58,0-49.96-.19-99.29-.87-148-2-27.18.94-54.85,1.62-83,2-35.76.48-70.77.46-105,0-9.23-5.67-31.34-20.62-30-38,1.4-18.19,27.72-29.45,38-34,142.6-63.21,205.12-170.56,360-164Z"/><path class="uuid-d7fa60fc-2132-45e1-b02a-ef12e62fe1c3" d="m304,363c-32.94,1.55-40.34,6.12-41,10-.88,5.14,9.57,11.92,17,15,9.34,3.87,17.56,3.41,22.68,3.18,8.01-.35,23.1,1.04,53.32.82,35.36-.26,38.34.73,53-1,18.28-2.16,33.07-5.98,43-9,63.67,1,127.33,2,191,3,1.51.22,15.11,2.02,25-8,6.89-6.98,7.82-15.5,8-18,2.67-58.33,5.33-116.67,8-175-1.32-4.22-4.26-11.25-11-16-6.88-4.86-14.32-4.94-19-5-15.24-.21-32.66-.64-53-1-9.67-5-19.33-10-29-15,29.33.33,58.67.67,88,1,2.82-.41,17.8-2.28,31,8,9.69,7.54,12.98,17.4,14,21-3.33,63-6.67,126-10,189-.6,4.68-2.53,14.3-10,23-14.66,17.07-37.47,15.24-40,15-79.82-3.03-161.51-5.08-245-6-67.52-.74-133.87-.71-199,0l-120-54c70.67-2,141.33-4,212-6,3.67,8.33,7.33,16.67,11,25Z"/><path class="uuid-2bcebe58-f43e-4977-93fd-853c857589ce" d="m662,148c-.56,1.51-1.37,3.93-2,7-.88,4.27-.97,7.63-1,9-.13,6.05-1.39,73.03-3,165,.18.93,1.53,8.64-4,15-5.81,6.69-14.17,6.08-15,6-39.67-.67-79.33-1.33-119-2,12.33-67,24.67-134,37-201,35.67.33,71.33.67,107,1Z"/><path class="uuid-17192a57-1234-48aa-bf3e-f7cba5a34804" d="m326,397c-4.51,6.18-11.69,15.92-22.34,27.12,0,0-7.91,8.29-16.66,15.88-15.97,13.85-69.11,40-145,61,269,1.33,538,2.67,807,4V0H400c4.1,60.09,2.04,110.34-1,147,0,0-12.96,167.69-73,250Z"/><path class="uuid-2bcebe58-f43e-4977-93fd-853c857589ce" d="m82,182h-19c-5.72,8.49-17.07,27.79-19,55-2.11,29.71,8.2,52,13,61,6-.67,12-1.33,18-2,2.33-38,4.67-76,7-114Z"/><path class="uuid-d7fa60fc-2132-45e1-b02a-ef12e62fe1c3" d="m71,211c-1.72,10.87-6.45,44.34,0,88,2.79,18.88,6.8,34.3,10,45,14.67,5.33,29.33,10.67,44,16,153.67,3,307.33,6,461,9,3.18.41,12.3,1.18,22-4,6.93-3.71,11.47-9.2,15-15,31.54-51.84,33-118,33-118s1-45.22-16.32-85.8c-1.26-2.95-3.44-7.55-7.68-12.2-11.14-12.2-27.09-14.24-33-15-28.08-3.6-215.8-2.57-473,3-7.57,2.15-18.22,6.31-28,15-18.41,16.36-21.34,38.29-27,74Z"/><path class="uuid-d2983df4-8422-4d21-a9e5-cb84869d6e89" d="m184,339c-1.53-11.89,4.9-20.57,6-22,9.1-11.88,23.34-12.01,25-12,8.63,2.51,17.27,5.01,25.9,7.52-8.12-7.51-19.3-12.77-30.9-11.52-10.83,1.17-24.04,8.23-29,22-4.19,11.64-2.3,27.62,8,35,3.89,2.79,8.06,3.69,11,4,.07,0,.13,0,.2,0-5.35-3.23-14.6-10.53-16.2-23.01Z"/><path class="uuid-d2983df4-8422-4d21-a9e5-cb84869d6e89" d="m273,363c-3.34-2.41-7.93-6.26-12-12-3.1-4.37-4.67-8.12-5.77-11.63-.99,11.32-7.88,19.15-9.23,20.63-1.06,1.17-2.15,2.2-3.24,3.12,11.63.09,22.61-.01,30.24-.12Z"/><path class="uuid-6c9f9818-c574-4a22-9a5c-498f4d1d027a" d="m251,326c-2.19-4.7-5.7-9.42-10.1-13.48-8.63-2.51-17.27-5.01-25.9-7.52-1.66-.01-15.9.12-25,12-1.1,1.43-7.53,10.11-6,22,1.6,12.48,10.85,19.78,16.2,23.01,2.1,1.27,3.6,1.91,3.8,1.99,9.67,1.67,19.33,3.33,29,5,2.03-.1,9.81-.74,16-7,8.94-9.05,6.44-21.63,6.23-22.63-1.43-4.57-2.06-8.73-4.23-13.37Z"/><path class="uuid-2bcebe58-f43e-4977-93fd-853c857589ce" d="m209,308c15.29-.31,27.25,14.39,26,29-1.04,12.12-11.08,23.31-24,24-14.31.77-26.71-11.63-27-26-.28-14.02,11.04-26.72,25-27Z"/><path class="uuid-d2983df4-8422-4d21-a9e5-cb84869d6e89" d="m395.5,343c2.33,5.67,4.67,11.33,7,17h65c-1.33-6-2.67-12-4-18-22.67.33-45.33.67-68,1Z"/><path class="uuid-2bcebe58-f43e-4977-93fd-853c857589ce" d="m399,351c22-.33,44-.67,66-1-.67-2.33-1.33-4.67-2-7l-3-6,3-39c-25,.67-50,1.33-75,2v11c12-.33,24-.67,36-1-2.48.97-7.14,3.2-11,8-2.05,2.55-3.26,5.07-4,7-4.56-2.65-10.2-2.21-14,1-4.89,4.13-4.06,10.6-4,11,2.67,4.67,5.33,9.33,8,14Z"/><path class="uuid-d2983df4-8422-4d21-a9e5-cb84869d6e89" d="m453,238c-1.27,0-3.74-39.53-1-85.84.85-14.35,2.02-26.4,3-35.16h5c-.53,7.48-1.24,17.76-2,29.99-3.98,63.8-3.94,91.01-5,91.01Z"/><line class="uuid-24a194b8-f283-40d9-80ec-840d53d40d93" x1="228.5" y1="365.5" x2="440.5" y2="331.5"/><line class="uuid-24a194b8-f283-40d9-80ec-840d53d40d93" x1="452.5" y1="316.5" x2="452.5" y2="234.5"/><circle class="uuid-97a44502-1ffc-4ba2-a89e-4410c71c0a76" cx="442" cy="320" r="13"/><circle class="uuid-97a44502-1ffc-4ba2-a89e-4410c71c0a76" cx="210" cy="334" r="7"/><path class="uuid-d2983df4-8422-4d21-a9e5-cb84869d6e89" d="m483,180.42c1.53,4.79,5.48,8.17,10,8.58,5.18.47,10.18-3.04,12-8.58.67-21.14,1.33-42.28,2-63.42h-21c-1,21.14-2,42.28-3,63.42Z"/><path class="uuid-2bcebe58-f43e-4977-93fd-853c857589ce" d="m90,314c-1.5.73-5.75,3.04-8,8-2.8,6.18-1.07,13.34,3,18,5.17,5.92,13.21,6.76,19,5,3.99-1.21,6.64-3.57,8-5,1.33-2.67,2.67-5.33,4-8,.16-1.34.87-8.44-4-14-5.03-5.74-13.96-7.47-22-4Z"/><path class="uuid-d2983df4-8422-4d21-a9e5-cb84869d6e89" d="m139.5,324.49c1.48-1.7,4.23-4.46,8.39-6.49h-26.9c-.55,1.2-2.15,5.12-1,10,1.26,5.38,5,8.27,6,9h3.23c3.05-2.89,6.11-5.78,9.16-8.67.37-1.28.74-2.56,1.11-3.84Z"/><path class="uuid-d2983df4-8422-4d21-a9e5-cb84869d6e89" d="m155,337c.15-.18.5-.62.91-1.26-.53.37-1.13.8-1.79,1.26h.89Z"/><path class="uuid-2bcebe58-f43e-4977-93fd-853c857589ce" d="m158,327c-.6-5.42-4.31-8.46-5-9h-5.1c-4.16,2.03-6.91,4.78-8.39,6.49-.37,1.28-.74,2.56-1.11,3.84-2.53,1.87-5.33,3.78-8.39,5.67-2.41,1.49-4.75,2.81-7,4-2.7,3.54-2.51,8.28,0,11,3.08,3.33,9.38,3.34,13-1,4.41-3.43,8.81-6.87,13.22-10.3.55.51,1.1,1.01,1.64,1.52,1.25-.84,2.31-1.57,3.25-2.22.66-.46,1.27-.88,1.79-1.26,1.06-1.66,2.54-4.76,2.09-8.74Z"/><path class="uuid-2bcebe58-f43e-4977-93fd-853c857589ce" d="m277,122c4.43,3.38,13.78,9.53,27,11,23.27,2.59,39.94-11.35,43-14,4.67-.33,9.33-.67,14-1v-33c-7.48-3.91-24.56-11.53-47-10-15.87,1.08-28,6.3-35,10-.67,12.33-1.33,24.67-2,37Z"/><path class="uuid-d2983df4-8422-4d21-a9e5-cb84869d6e89" d="m179,225c.34,31.38,55.94,57.9,101.39,59,51.43,1.24,110.88-29.56,110.61-61-.28-31.87-61.92-62.31-114.7-59-44.06,2.77-97.63,30.04-97.29,61Z"/><path class="uuid-d7fa60fc-2132-45e1-b02a-ef12e62fe1c3" d="m193.1,244c-1.71,1.56-4.41,2.66-6.86,2-.93-.25-2.81-1.02-6.14-8-1.25-2.61-2.8-6.32-4.09-11-.67-9-1.33-18-2-27,.07-1.38.43-4.85,3-8,4.36-5.35,11.23-5.05,12-5,97.89-.53,165.26-.92,170.22-1,.26,0,1.2-.02,2.46.03,2.54.11,6.47.51,10.93,1.97,4.27,1.4,7.66,3.31,10.15,5,1.75,2.73,4.08,6.79,6.14,12,2.19,5.53,4.17,10.52,4.09,17-.04,3.2-.61,9.62-5,17-.5.79-2.66,3.99-6.84,5-4.17,1.01-8.7-.56-11.7-4-3.51-1.33-7.02-2.67-10.52-4-54.42.67-108.85,1.33-163.27,2,0,.51.02,3.64-2.56,6Z"/><path class="uuid-a3f5af82-a130-4650-b163-53a65f097603" d="m326,397c94.33,1,188.67,2,283,3h0s-.02,0-.02,0c-.04,0-67.61-1.5-166.98,15-76.11,12.64-136.44,30.13-158,38-1.36.5-32.99,12.06-33.01,12,0,0,0,0,0,0,10.98-6.2,23.81-14.63,37-26,17.07-14.71,29.39-29.73,38-42Z"/></svg>